<svg width="46" height="46" viewBox="0 0 46 46" fill="none" xmlns="http://www.w3.org/2000/svg">
<path d="M22.3121 24.587H11.5002C10.9918 24.587 10.5043 24.3851 10.1449 24.0256C9.78543 23.6662 9.5835 23.1787 9.5835 22.6703C9.5835 22.162 9.78543 21.6745 10.1449 21.315C10.5043 20.9556 10.9918 20.7537 11.5002 20.7537H22.3121L20.1654 18.607C19.816 18.2458 19.6225 17.7617 19.6265 17.2592C19.6305 16.7566 19.8317 16.2758 20.1868 15.9201C20.542 15.5645 21.0225 15.3626 21.5251 15.3579C22.0276 15.3532 22.5119 15.546 22.8737 15.8949L28.2959 21.3133C28.4748 21.491 28.6168 21.7022 28.7137 21.9349C28.8106 22.1677 28.8604 22.4173 28.8604 22.6694C28.8604 22.9215 28.8106 23.1711 28.7137 23.4038C28.6168 23.6365 28.4748 23.8478 28.2959 24.0254L22.8737 29.4457C22.5108 29.7865 22.0296 29.9727 21.5318 29.965C21.0341 29.9573 20.5589 29.7562 20.2068 29.4043C19.8547 29.0525 19.6533 28.5774 19.6452 28.0797C19.6371 27.582 19.823 27.1006 20.1635 26.7375L22.3121 24.587ZM34.5002 5.75C35.0085 5.75 35.496 5.95193 35.8555 6.31138C36.2149 6.67082 36.4168 7.15833 36.4168 7.66667V38.3333C36.4168 38.8417 36.2149 39.3292 35.8555 39.6886C35.496 40.0481 35.0085 40.25 34.5002 40.25C33.9918 40.25 33.5043 40.0481 33.1449 39.6886C32.7854 39.3292 32.5835 38.8417 32.5835 38.3333V7.66667C32.5835 7.15833 32.7854 6.67082 33.1449 6.31138C33.5043 5.95193 33.9918 5.75 34.5002 5.75V5.75Z" fill="#D3D3D3"/>
</svg>
