<svg width="270" height="59" viewBox="0 0 270 59" fill="none" xmlns="http://www.w3.org/2000/svg">
<g filter="url(#filter0_d)">
<rect width="262" height="51" rx="5" fill="white"/>
</g>
<path fill-rule="evenodd" clip-rule="evenodd" d="M42.1915 26.2954C42.1915 25.3736 42.1112 24.4873 41.9622 23.6364H30.0813V28.665H36.8704C36.5779 30.29 35.6892 31.6668 34.3531 32.5886V35.8504H38.43C40.8154 33.5873 42.1915 30.2545 42.1915 26.2954Z" fill="#4285F4"/>
<path fill-rule="evenodd" clip-rule="evenodd" d="M30.0812 39C33.4872 39 36.3427 37.8359 38.4299 35.8504L34.353 32.5886C33.2234 33.3686 31.7784 33.8295 30.0812 33.8295C26.7956 33.8295 24.0146 31.5427 23.0226 28.47H18.8081V31.8382C20.8838 36.0868 25.1499 39 30.0812 39Z" fill="#34A853"/>
<path fill-rule="evenodd" clip-rule="evenodd" d="M23.023 28.47C22.7708 27.69 22.6274 26.8569 22.6274 26C22.6274 25.1432 22.7708 24.31 23.023 23.53V20.1619H18.8086C17.9542 21.9169 17.4668 23.9023 17.4668 26C17.4668 28.0978 17.9542 30.0832 18.8086 31.8382L23.023 28.47Z" fill="#FBBC05"/>
<path fill-rule="evenodd" clip-rule="evenodd" d="M30.0812 18.1705C31.9332 18.1705 33.5961 18.8264 34.9035 20.1145L38.5216 16.3859C36.337 14.2882 33.4814 13 30.0812 13C25.1499 13 20.8838 15.9132 18.8081 20.1618L23.0226 23.53C24.0146 20.4573 26.7956 18.1705 30.0812 18.1705Z" fill="#EA4335"/>
<path d="M81.9758 29.436C81.9758 30.576 81.5618 31.488 80.7338 32.172C79.9178 32.844 78.7538 33.18 77.2418 33.18C75.8858 33.18 74.6738 32.922 73.6058 32.406V29.868C74.2178 30.132 74.8478 30.378 75.4958 30.606C76.1558 30.822 76.8098 30.93 77.4578 30.93C78.1298 30.93 78.6038 30.804 78.8798 30.552C79.1678 30.288 79.3118 29.958 79.3118 29.562C79.3118 29.238 79.1978 28.962 78.9698 28.734C78.7538 28.506 78.4598 28.296 78.0878 28.104C77.7158 27.9 77.2898 27.684 76.8098 27.456C76.5098 27.312 76.1858 27.144 75.8378 26.952C75.4898 26.748 75.1538 26.502 74.8298 26.214C74.5178 25.914 74.2598 25.554 74.0558 25.134C73.8518 24.714 73.7498 24.21 73.7498 23.622C73.7498 22.47 74.1398 21.576 74.9198 20.94C75.6998 20.292 76.7618 19.968 78.1058 19.968C78.7778 19.968 79.4138 20.046 80.0138 20.202C80.6258 20.358 81.2618 20.58 81.9218 20.868L81.0398 22.992C80.4518 22.752 79.9238 22.566 79.4558 22.434C78.9878 22.302 78.5078 22.236 78.0158 22.236C77.4998 22.236 77.1038 22.356 76.8278 22.596C76.5518 22.836 76.4138 23.148 76.4138 23.532C76.4138 23.988 76.6178 24.348 77.0258 24.612C77.4338 24.876 78.0398 25.2 78.8438 25.584C79.5038 25.896 80.0618 26.22 80.5178 26.556C80.9858 26.892 81.3458 27.288 81.5978 27.744C81.8498 28.2 81.9758 28.764 81.9758 29.436ZM85.4459 19.32C85.8419 19.32 86.1839 19.416 86.4719 19.608C86.7599 19.788 86.9039 20.13 86.9039 20.634C86.9039 21.126 86.7599 21.468 86.4719 21.66C86.1839 21.852 85.8419 21.948 85.4459 21.948C85.0379 21.948 84.6899 21.852 84.4019 21.66C84.1259 21.468 83.9879 21.126 83.9879 20.634C83.9879 20.13 84.1259 19.788 84.4019 19.608C84.6899 19.416 85.0379 19.32 85.4459 19.32ZM86.7779 23.172V33H84.0959V23.172H86.7779ZM92.7663 22.992C93.9783 22.992 94.9263 23.472 95.6103 24.432H95.6823L95.8983 23.172H98.1663V33.018C98.1663 34.422 97.7523 35.49 96.9243 36.222C96.0963 36.954 94.8723 37.32 93.2523 37.32C92.5563 37.32 91.9083 37.278 91.3083 37.194C90.7203 37.11 90.1443 36.96 89.5803 36.744V34.602C90.7923 35.106 92.0703 35.358 93.4143 35.358C94.7943 35.358 95.4843 34.614 95.4843 33.126V32.928C95.4843 32.724 95.4903 32.514 95.5023 32.298C95.5263 32.082 95.5443 31.89 95.5563 31.722H95.4843C95.1483 32.238 94.7463 32.61 94.2783 32.838C93.8103 33.066 93.2823 33.18 92.6943 33.18C91.5303 33.18 90.6183 32.736 89.9583 31.848C89.3103 30.948 88.9863 29.7 88.9863 28.104C88.9863 26.496 89.3223 25.242 89.9943 24.342C90.6663 23.442 91.5903 22.992 92.7663 22.992ZM93.6123 25.17C92.3523 25.17 91.7223 26.16 91.7223 28.14C91.7223 30.096 92.3643 31.074 93.6483 31.074C94.3323 31.074 94.8363 30.882 95.1603 30.498C95.4963 30.102 95.6643 29.418 95.6643 28.446V28.122C95.6643 27.066 95.5023 26.31 95.1783 25.854C94.8543 25.398 94.3323 25.17 93.6123 25.17ZM106.551 22.992C107.607 22.992 108.453 23.28 109.089 23.856C109.725 24.42 110.043 25.332 110.043 26.592V33H107.361V27.258C107.361 26.55 107.235 26.022 106.983 25.674C106.731 25.314 106.329 25.134 105.777 25.134C104.961 25.134 104.403 25.416 104.103 25.98C103.803 26.532 103.653 27.33 103.653 28.374V33H100.971V23.172H103.023L103.383 24.432H103.527C103.839 23.928 104.265 23.562 104.805 23.334C105.357 23.106 105.939 22.992 106.551 22.992ZM118.598 19.32C118.994 19.32 119.336 19.416 119.624 19.608C119.912 19.788 120.056 20.13 120.056 20.634C120.056 21.126 119.912 21.468 119.624 21.66C119.336 21.852 118.994 21.948 118.598 21.948C118.19 21.948 117.842 21.852 117.554 21.66C117.278 21.468 117.14 21.126 117.14 20.634C117.14 20.13 117.278 19.788 117.554 19.608C117.842 19.416 118.19 19.32 118.598 19.32ZM119.93 23.172V33H117.248V23.172H119.93ZM128.313 22.992C129.369 22.992 130.215 23.28 130.851 23.856C131.487 24.42 131.805 25.332 131.805 26.592V33H129.123V27.258C129.123 26.55 128.997 26.022 128.745 25.674C128.493 25.314 128.091 25.134 127.539 25.134C126.723 25.134 126.165 25.416 125.865 25.98C125.565 26.532 125.415 27.33 125.415 28.374V33H122.733V23.172H124.785L125.145 24.432H125.289C125.601 23.928 126.027 23.562 126.567 23.334C127.119 23.106 127.701 22.992 128.313 22.992ZM146.336 29.562C146.288 29.358 146.216 29.058 146.12 28.662C146.036 28.254 145.94 27.822 145.832 27.366C145.724 26.898 145.622 26.472 145.526 26.088C145.43 25.692 145.364 25.404 145.328 25.224H145.256C145.22 25.404 145.154 25.692 145.058 26.088C144.974 26.472 144.878 26.898 144.77 27.366C144.662 27.822 144.56 28.254 144.464 28.662C144.368 29.07 144.296 29.382 144.248 29.598L143.456 33H140.576L137.786 23.172H140.45L141.584 27.528C141.668 27.828 141.74 28.188 141.8 28.608C141.872 29.028 141.938 29.436 141.998 29.832C142.058 30.216 142.1 30.522 142.124 30.75H142.196C142.208 30.582 142.232 30.36 142.268 30.084C142.304 29.796 142.346 29.502 142.394 29.202C142.454 28.902 142.502 28.632 142.538 28.392C142.586 28.14 142.622 27.972 142.646 27.888L143.852 23.172H146.804L147.956 27.888C148.004 28.056 148.058 28.326 148.118 28.698C148.19 29.07 148.25 29.448 148.298 29.832C148.358 30.216 148.388 30.522 148.388 30.75H148.46C148.484 30.546 148.526 30.252 148.586 29.868C148.646 29.472 148.712 29.058 148.784 28.626C148.868 28.194 148.952 27.828 149.036 27.528L150.206 23.172H152.834L150.008 33H147.092L146.336 29.562ZM155.776 19.32C156.172 19.32 156.514 19.416 156.802 19.608C157.09 19.788 157.234 20.13 157.234 20.634C157.234 21.126 157.09 21.468 156.802 21.66C156.514 21.852 156.172 21.948 155.776 21.948C155.368 21.948 155.02 21.852 154.732 21.66C154.456 21.468 154.318 21.126 154.318 20.634C154.318 20.13 154.456 19.788 154.732 19.608C155.02 19.416 155.368 19.32 155.776 19.32ZM157.108 23.172V33H154.426V23.172H157.108ZM164.05 31.038C164.35 31.038 164.638 31.008 164.914 30.948C165.19 30.888 165.466 30.816 165.742 30.732V32.73C165.454 32.85 165.094 32.952 164.662 33.036C164.242 33.132 163.78 33.18 163.276 33.18C162.688 33.18 162.16 33.084 161.692 32.892C161.236 32.7 160.87 32.37 160.594 31.902C160.33 31.422 160.198 30.762 160.198 29.922V25.188H158.92V24.054L160.396 23.154L161.17 21.084H162.88V23.172H165.634V25.188H162.88V29.922C162.88 30.294 162.988 30.576 163.204 30.768C163.42 30.948 163.702 31.038 164.05 31.038ZM170.397 22.11C170.397 22.59 170.379 23.052 170.343 23.496C170.319 23.94 170.295 24.252 170.271 24.432H170.415C170.727 23.928 171.129 23.562 171.621 23.334C172.113 23.106 172.659 22.992 173.259 22.992C174.327 22.992 175.179 23.28 175.815 23.856C176.463 24.42 176.787 25.332 176.787 26.592V33H174.105V27.258C174.105 25.842 173.577 25.134 172.521 25.134C171.717 25.134 171.159 25.416 170.847 25.98C170.547 26.532 170.397 27.33 170.397 28.374V33H167.715V19.32H170.397V22.11ZM189.086 25.782H194.18V32.442C193.508 32.67 192.806 32.85 192.074 32.982C191.354 33.114 190.532 33.18 189.608 33.18C187.688 33.18 186.212 32.616 185.18 31.488C184.148 30.36 183.632 28.716 183.632 26.556C183.632 25.212 183.89 24.048 184.406 23.064C184.934 22.08 185.696 21.318 186.692 20.778C187.688 20.238 188.906 19.968 190.346 19.968C191.03 19.968 191.702 20.04 192.362 20.184C193.022 20.328 193.622 20.52 194.162 20.76L193.262 22.938C192.866 22.734 192.416 22.566 191.912 22.434C191.408 22.302 190.88 22.236 190.328 22.236C189.536 22.236 188.846 22.416 188.258 22.776C187.682 23.136 187.232 23.646 186.908 24.306C186.596 24.954 186.44 25.722 186.44 26.61C186.44 27.45 186.554 28.194 186.782 28.842C187.01 29.49 187.37 30 187.862 30.372C188.354 30.732 188.996 30.912 189.788 30.912C190.172 30.912 190.496 30.894 190.76 30.858C191.036 30.822 191.288 30.78 191.516 30.732V28.05H189.086V25.782ZM205.946 28.068C205.946 29.7 205.514 30.96 204.65 31.848C203.798 32.736 202.634 33.18 201.158 33.18C200.246 33.18 199.43 32.982 198.71 32.586C198.002 32.19 197.444 31.614 197.036 30.858C196.628 30.09 196.424 29.16 196.424 28.068C196.424 26.436 196.85 25.182 197.702 24.306C198.554 23.43 199.724 22.992 201.212 22.992C202.136 22.992 202.952 23.19 203.66 23.586C204.368 23.982 204.926 24.558 205.334 25.314C205.742 26.058 205.946 26.976 205.946 28.068ZM199.16 28.068C199.16 29.04 199.316 29.778 199.628 30.282C199.952 30.774 200.474 31.02 201.194 31.02C201.902 31.02 202.412 30.774 202.724 30.282C203.048 29.778 203.21 29.04 203.21 28.068C203.21 27.096 203.048 26.37 202.724 25.89C202.412 25.398 201.896 25.152 201.176 25.152C200.468 25.152 199.952 25.398 199.628 25.89C199.316 26.37 199.16 27.096 199.16 28.068ZM217.09 28.068C217.09 29.7 216.658 30.96 215.794 31.848C214.942 32.736 213.778 33.18 212.302 33.18C211.39 33.18 210.574 32.982 209.854 32.586C209.146 32.19 208.588 31.614 208.18 30.858C207.772 30.09 207.568 29.16 207.568 28.068C207.568 26.436 207.994 25.182 208.846 24.306C209.698 23.43 210.868 22.992 212.356 22.992C213.28 22.992 214.096 23.19 214.804 23.586C215.512 23.982 216.07 24.558 216.478 25.314C216.886 26.058 217.09 26.976 217.09 28.068ZM210.304 28.068C210.304 29.04 210.46 29.778 210.772 30.282C211.096 30.774 211.618 31.02 212.338 31.02C213.046 31.02 213.556 30.774 213.868 30.282C214.192 29.778 214.354 29.04 214.354 28.068C214.354 27.096 214.192 26.37 213.868 25.89C213.556 25.398 213.04 25.152 212.32 25.152C211.612 25.152 211.096 25.398 210.772 25.89C210.46 26.37 210.304 27.096 210.304 28.068ZM222.493 22.992C223.705 22.992 224.653 23.472 225.337 24.432H225.409L225.625 23.172H227.893V33.018C227.893 34.422 227.479 35.49 226.651 36.222C225.823 36.954 224.599 37.32 222.979 37.32C222.283 37.32 221.635 37.278 221.035 37.194C220.447 37.11 219.871 36.96 219.307 36.744V34.602C220.519 35.106 221.797 35.358 223.141 35.358C224.521 35.358 225.211 34.614 225.211 33.126V32.928C225.211 32.724 225.217 32.514 225.229 32.298C225.253 32.082 225.271 31.89 225.283 31.722H225.211C224.875 32.238 224.473 32.61 224.005 32.838C223.537 33.066 223.009 33.18 222.421 33.18C221.257 33.18 220.345 32.736 219.685 31.848C219.037 30.948 218.713 29.7 218.713 28.104C218.713 26.496 219.049 25.242 219.721 24.342C220.393 23.442 221.317 22.992 222.493 22.992ZM223.339 25.17C222.079 25.17 221.449 26.16 221.449 28.14C221.449 30.096 222.091 31.074 223.375 31.074C224.059 31.074 224.563 30.882 224.887 30.498C225.223 30.102 225.391 29.418 225.391 28.446V28.122C225.391 27.066 225.229 26.31 224.905 25.854C224.581 25.398 224.059 25.17 223.339 25.17ZM233.379 33H230.697V19.32H233.379V33ZM240.232 22.992C241.588 22.992 242.662 23.382 243.454 24.162C244.246 24.93 244.642 26.028 244.642 27.456V28.752H238.306C238.33 29.508 238.552 30.102 238.972 30.534C239.404 30.966 239.998 31.182 240.754 31.182C241.39 31.182 241.966 31.122 242.482 31.002C242.998 30.87 243.532 30.672 244.084 30.408V32.478C243.604 32.718 243.094 32.892 242.554 33C242.026 33.12 241.384 33.18 240.628 33.18C239.644 33.18 238.774 33 238.018 32.64C237.262 32.268 236.668 31.71 236.236 30.966C235.804 30.222 235.588 29.286 235.588 28.158C235.588 27.006 235.78 26.052 236.164 25.296C236.56 24.528 237.106 23.952 237.802 23.568C238.498 23.184 239.308 22.992 240.232 22.992ZM240.25 24.9C239.734 24.9 239.302 25.068 238.954 25.404C238.618 25.74 238.42 26.262 238.36 26.97H242.122C242.11 26.37 241.954 25.878 241.654 25.494C241.354 25.098 240.886 24.9 240.25 24.9Z" fill="#757575"/>
<defs>
<filter id="filter0_d" x="0" y="0" width="270" height="59" filterUnits="userSpaceOnUse" color-interpolation-filters="sRGB">
<feFlood flood-opacity="0" result="BackgroundImageFix"/>
<feColorMatrix in="SourceAlpha" type="matrix" values="0 0 0 0 0 0 0 0 0 0 0 0 0 0 0 0 0 0 127 0"/>
<feOffset dx="4" dy="4"/>
<feGaussianBlur stdDeviation="2"/>
<feColorMatrix type="matrix" values="0 0 0 0 0 0 0 0 0 0 0 0 0 0 0 0 0 0 0.1 0"/>
<feBlend mode="normal" in2="BackgroundImageFix" result="effect1_dropShadow"/>
<feBlend mode="normal" in="SourceGraphic" in2="effect1_dropShadow" result="shape"/>
</filter>
</defs>
</svg>
