<svg width="40" height="40" viewBox="0 0 40 40" fill="none" xmlns="http://www.w3.org/2000/svg">
<path d="M22.1897 19.8333L28.0814 13.94C28.2406 13.7863 28.3675 13.6024 28.4549 13.399C28.5422 13.1957 28.5882 12.977 28.5901 12.7557C28.592 12.5344 28.5499 12.3149 28.4661 12.1101C28.3823 11.9053 28.2585 11.7192 28.102 11.5627C27.9455 11.4062 27.7595 11.2824 27.5546 11.1986C27.3498 11.1148 27.1303 11.0727 26.909 11.0746C26.6877 11.0765 26.469 11.1225 26.2657 11.2098C26.0624 11.2972 25.8784 11.4242 25.7247 11.5833L19.8314 17.475L13.9397 11.5833C13.786 11.4242 13.602 11.2972 13.3987 11.2098C13.1954 11.1225 12.9767 11.0765 12.7554 11.0746C12.5341 11.0727 12.3146 11.1148 12.1098 11.1986C11.9049 11.2824 11.7189 11.4062 11.5624 11.5627C11.4059 11.7192 11.2821 11.9053 11.1983 12.1101C11.1145 12.3149 11.0724 12.5344 11.0743 12.7557C11.0762 12.977 11.1222 13.1957 11.2095 13.399C11.2969 13.6024 11.4238 13.7863 11.583 13.94L17.4747 19.8317L11.583 25.725C11.4238 25.8788 11.2969 26.0627 11.2095 26.266C11.1222 26.4693 11.0762 26.688 11.0743 26.9093C11.0724 27.1306 11.1145 27.3501 11.1983 27.5549C11.2821 27.7598 11.4059 27.9458 11.5624 28.1023C11.7189 28.2588 11.9049 28.3826 12.1098 28.4664C12.3146 28.5502 12.5341 28.5923 12.7554 28.5904C12.9767 28.5885 13.1954 28.5425 13.3987 28.4552C13.602 28.3678 13.786 28.2409 13.9397 28.0817L19.8314 22.19L25.7247 28.0817C25.8784 28.2409 26.0624 28.3678 26.2657 28.4552C26.469 28.5425 26.6877 28.5885 26.909 28.5904C27.1303 28.5923 27.3498 28.5502 27.5546 28.4664C27.7595 28.3826 27.9455 28.2588 28.102 28.1023C28.2585 27.9458 28.3823 27.7598 28.4661 27.5549C28.5499 27.3501 28.592 27.1306 28.5901 26.9093C28.5882 26.688 28.5422 26.4693 28.4549 26.266C28.3675 26.0627 28.2406 25.8788 28.0814 25.725L22.1897 19.8317V19.8333Z" fill="#505962"/>
</svg>
