<svg width="40" height="40" viewBox="0 0 40 40" fill="none" xmlns="http://www.w3.org/2000/svg">
<path d="M36.6663 16.9383C36.123 17.2438 35.6708 17.6884 35.3562 18.2265C35.0416 18.7646 34.876 19.3767 34.8763 20C34.8763 21.315 35.598 22.46 36.6663 23.0617L35.4713 27.0717C34.8254 26.9606 34.1613 27.0326 33.5542 27.2796C32.9471 27.5267 32.4214 27.9388 32.0366 28.4694C31.6518 28.9999 31.4233 29.6277 31.377 30.2814C31.3307 30.9352 31.4685 31.5889 31.7747 32.1683L28.338 34.8383C27.883 34.4654 27.3415 34.2128 26.7633 34.104C26.1851 33.9953 25.5889 34.0337 25.0294 34.2158C24.47 34.3979 23.9654 34.7178 23.562 35.1461C23.1587 35.5744 22.8696 36.0973 22.7213 36.6667L17.238 36.6533C17.0881 36.0867 16.7986 35.5667 16.396 35.1408C15.9933 34.7149 15.4903 34.3968 14.933 34.2154C14.3756 34.0341 13.7817 33.9953 13.2056 34.1027C12.6294 34.21 12.0893 34.4601 11.6347 34.83L8.20134 32.1383C8.49896 31.5613 8.63059 30.9129 8.58158 30.2654C8.53256 29.618 8.30482 28.9968 7.92372 28.4711C7.54261 27.9454 7.02308 27.5357 6.42297 27.2878C5.82286 27.0398 5.16571 26.9633 4.52467 27.0667L3.33301 23.0417C3.86626 22.733 4.30887 22.2894 4.61635 21.7555C4.92383 21.2216 5.08535 20.6161 5.08467 20C5.08467 18.7 4.38301 17.5667 3.33301 16.9583L4.52467 12.9333C5.16584 13.0371 5.82321 12.9608 6.42359 12.713C7.02396 12.4652 7.54376 12.0556 7.92509 11.5298C8.30642 11.0041 8.53431 10.3828 8.58338 9.73511C8.63245 9.08746 8.50077 8.4389 8.20301 7.86168L11.633 5.17001C12.0876 5.53993 12.6277 5.79 13.2039 5.89736C13.7801 6.00473 14.374 5.96596 14.9313 5.7846C15.4887 5.60324 15.9916 5.28508 16.3943 4.85919C16.797 4.43331 17.0865 3.9133 17.2363 3.34668L22.723 3.33334C22.8712 3.90269 23.1604 4.42559 23.5637 4.85389C23.967 5.28219 24.4717 5.60213 25.0311 5.78423C25.5905 5.96634 26.1868 6.00477 26.765 5.89597C27.3432 5.78718 27.8847 5.53466 28.3397 5.16168L31.773 7.83334C31.4668 8.41282 31.329 9.06649 31.3753 9.72026C31.4216 10.374 31.6501 11.0018 32.0349 11.5323C32.4197 12.0629 32.9455 12.475 33.5525 12.722C34.1596 12.9691 34.8238 13.0411 35.4697 12.93L36.6663 16.9367V16.9383ZM19.9997 26.6667C21.7678 26.6667 23.4635 25.9643 24.7137 24.7141C25.964 23.4638 26.6663 21.7681 26.6663 20C26.6663 18.2319 25.964 16.5362 24.7137 15.286C23.4635 14.0357 21.7678 13.3333 19.9997 13.3333C18.2316 13.3333 16.5359 14.0357 15.2856 15.286C14.0354 16.5362 13.333 18.2319 13.333 20C13.333 21.7681 14.0354 23.4638 15.2856 24.7141C16.5359 25.9643 18.2316 26.6667 19.9997 26.6667Z" fill="#505962"/>
</svg>
